<svg xmlns="http://www.w3.org/2000/svg" width="100" height="100" viewBox="0 0 100 100" version="1.1"><path d="M 19.180 9.658 C 17.353 10.571, 14.653 12.898, 13.180 14.829 C 10.500 18.341, 10.500 18.341, 10.210 49.684 C 9.884 84.770, 10.022 85.627, 16.813 90.806 C 20.344 93.500, 20.344 93.500, 50 93.500 C 79.656 93.500, 79.656 93.500, 83.187 90.806 C 89.823 85.745, 90 84.712, 90 51 C 90 17.289, 89.823 16.257, 83.189 11.194 C 79.660 8.500, 79.660 8.500, 51.080 8.250 C 26.124 8.031, 22.079 8.209, 19.180 9.658 M 23.333 13.066 C 19.019 14.358, 15.253 19.130, 14.480 24.286 C 14.127 26.639, 13.987 37.120, 14.169 47.579 C 14.529 68.259, 14.955 69.959, 20.720 73.736 C 23.121 75.310, 26.282 75.500, 50 75.500 C 87.250 75.500, 85.500 77.053, 85.500 44 C 85.500 11.163, 87.018 12.580, 51.547 12.309 C 37.771 12.204, 25.075 12.545, 23.333 13.066 M 37 44 C 37 60, 37 60, 39.500 60 C 41.929 60, 42 59.800, 42 53 C 42 46, 42 46, 50 46 C 58 46, 58 46, 58 53 C 58 59.800, 58.071 60, 60.500 60 C 63 60, 63 60, 63 44 C 63 28, 63 28, 60.500 28 C 58.090 28, 58 28.233, 58 34.500 C 58 41, 58 41, 50 41 C 42 41, 42 41, 42 34.500 C 42 28.233, 41.910 28, 39.500 28 C 37 28, 37 28, 37 44 M 14.486 78.102 C 15.406 82.505, 17.372 85.542, 20.720 87.736 C 23.121 89.310, 26.282 89.500, 50 89.500 C 73.718 89.500, 76.879 89.310, 79.280 87.736 C 82.628 85.542, 84.594 82.505, 85.514 78.102 C 86.224 74.704, 86.224 74.704, 82.862 77.102 C 79.500 79.500, 79.500 79.500, 50 79.500 C 20.500 79.500, 20.500 79.500, 17.138 77.102 C 13.776 74.704, 13.776 74.704, 14.486 78.102" stroke="none" fill="#fffcfc" fill-rule="evenodd"/><path d="" stroke="none" fill="#fcfcfc" fill-rule="evenodd"/></svg>