<svg xmlns="http://www.w3.org/2000/svg" width="100" height="100" viewBox="0 0 100 100" version="1.1"><path d="M 83 11.378 C 83 11.585, 83.787 12.373, 84.750 13.128 C 86.336 14.371, 86.371 14.336, 85.128 12.750 C 83.821 11.084, 83 10.555, 83 11.378 M 74.333 75.667 C 74.700 76.033, 75.300 76.033, 75.667 75.667 C 76.033 75.300, 75.733 75, 75 75 C 74.267 75, 73.967 75.300, 74.333 75.667 M 13 87.378 C 13 87.585, 13.787 88.373, 14.750 89.128 C 16.336 90.371, 16.371 90.336, 15.128 88.750 C 13.821 87.084, 13 86.555, 13 87.378 M 74.333 89.667 C 74.700 90.033, 75.300 90.033, 75.667 89.667 C 76.033 89.300, 75.733 89, 75 89 C 74.267 89, 73.967 89.300, 74.333 89.667" stroke="none" fill="#cc9404" fill-rule="evenodd"/><path d="M 18.520 10.263 C 16.310 11.528, 13.538 14.310, 12.287 16.520 C 10.085 20.407, 10.033 21.210, 10.020 51 C 10.009 78.948, 10.162 81.751, 11.859 84.500 C 14.805 89.275, 18.777 92.705, 22.139 93.378 C 23.850 93.720, 37.006 93.993, 51.375 93.984 C 76.622 93.968, 77.634 93.891, 81.480 91.713 C 83.711 90.449, 86.449 87.711, 87.713 85.480 C 89.914 81.594, 89.967 80.781, 89.984 51.151 C 90.002 17.387, 89.953 17.100, 83.249 11.500 C 79.657 8.500, 79.657 8.500, 51.078 8.243 C 22.937 7.989, 22.439 8.020, 18.520 10.263 M 23.333 13.060 C 19.016 14.361, 15.253 19.133, 14.480 24.286 C 14.127 26.639, 13.987 37.180, 14.169 47.711 C 14.471 65.208, 14.679 67.102, 16.571 69.680 C 20.926 75.610, 23.005 75.997, 50.500 75.995 C 73.518 75.993, 75.753 75.838, 78.696 74.044 C 85.117 70.129, 85.465 68.760, 85.830 46.047 C 86.195 23.305, 85.664 19.969, 80.958 15.458 C 77.872 12.500, 77.872 12.500, 52.186 12.303 C 38.059 12.194, 25.075 12.535, 23.333 13.060 M 37 44 C 37 60, 37 60, 39.468 60 C 41.934 60, 41.937 59.989, 42.218 48.425 L 42.500 36.850 50.500 48.419 C 56.687 57.366, 59.010 59.990, 60.750 59.994 C 62.990 60, 63 59.928, 63 44 C 63 28, 63 28, 60.532 28 C 58.067 28, 58.063 28.017, 57.782 39.484 L 57.500 50.968 52.500 43.858 C 49.750 39.947, 46.155 34.779, 44.510 32.374 C 42.464 29.380, 40.808 28, 39.260 28 C 37.007 28, 37 28.052, 37 44 M 14.504 78.280 C 15.403 82.733, 18.022 86.184, 22.071 88.248 C 25.065 89.775, 28.670 89.997, 50.500 89.995 C 73.518 89.993, 75.753 89.838, 78.696 88.044 C 82.558 85.689, 84.743 82.537, 85.647 78.015 L 86.323 74.634 82.912 77.067 C 79.517 79.488, 79.359 79.501, 51.176 79.794 C 22.852 80.089, 22.852 80.089, 18.353 77.574 L 13.854 75.059 14.504 78.280" stroke="none" fill="#cc9c04" fill-rule="evenodd"/></svg>